<?xml version="1.0" encoding="utf-8"?>
<!-- Generator: Adobe Illustrator 23.0.0, SVG Export Plug-In . SVG Version: 6.00 Build 0)  -->
<svg version="1.1" xmlns="http://www.w3.org/2000/svg" xmlns:xlink="http://www.w3.org/1999/xlink" x="0px" y="0px"
	 viewBox="0 0 545 500" style="enable-background:new 0 0 545 500;" xml:space="preserve">
<style type="text/css">
	.st0{fill:#E4E9ED;}
	.st1{fill:url(#SHADOW_5_);}
	.st2{fill:url(#SHADOW_6_);}
	.st3{fill:url(#SHADOW_7_);}
	.st4{fill:url(#SHADOW_8_);}
	.st5{fill:none;stroke:#FFFFFF;stroke-width:10;stroke-miterlimit:10;}
	.st6{fill:none;stroke:#DA5F83;stroke-width:10;stroke-miterlimit:10;}
	.st7{fill:#DA5F83;}
	.st8{fill:#264666;}
	.st9{fill:#506A84;}
	.st10{fill:#E3FAFF;}
	.st11{fill:none;stroke:#264666;stroke-width:2;stroke-miterlimit:10;}
	.st12{fill:#A7B4C1;}
	.st13{fill:#2793FB;}
	.st14{fill:#FDC64D;}
	.st15{fill:#FE95BB;}
	.st16{fill:url(#SVGID_1_);}
	.st17{fill:url(#SVGID_2_);}
	.st18{fill:#FFA539;}
	.st19{fill:url(#SVGID_3_);}
	.st20{fill:none;stroke:#FFFFFF;stroke-width:0.75;stroke-miterlimit:10;}
	.st21{fill:url(#SVGID_4_);}
	.st22{fill:none;stroke:#FFFFFF;stroke-width:0.6112;stroke-miterlimit:10;}
	.st23{fill:url(#SVGID_5_);}
	.st24{fill:url(#SVGID_6_);}
	.st25{fill:none;stroke:#FFFFFF;stroke-width:0.7785;stroke-miterlimit:10;}
	.st26{fill:#50C0FD;}
	.st27{fill:#8CD6FD;}
	.st28{fill:none;stroke:#264666;stroke-width:2;stroke-linecap:round;stroke-linejoin:round;stroke-miterlimit:10;}
	.st29{fill:#FFFFFF;}
	.st30{fill:url(#SHADOW_9_);}
	.st31{fill:#7C90A2;}
	.st32{fill:none;stroke:#FFFFFF;stroke-width:2;stroke-miterlimit:10;}
	.st33{fill:none;stroke:#FFFFFF;stroke-width:2;stroke-miterlimit:10;stroke-dasharray:5.9596,3.973;}
</style>
<g id="SHAPE">
	<polygon class="st0" points="99.2,473.3 441,473.3 441,48.5 273.7,48.5 99.2,154.6 	"/>
</g>
<g id="SHADOWS">
	<linearGradient id="SHADOW_5_" gradientUnits="userSpaceOnUse" x1="361.7188" y1="375.3141" x2="361.7188" y2="448.0129">
		<stop  offset="0" style="stop-color:#A7B4C1"/>
		<stop  offset="0.7677" style="stop-color:#A7B4C1;stop-opacity:0"/>
	</linearGradient>
	<rect id="SHADOW_3_" x="282.8" y="375.3" class="st1" width="157.7" height="72.7"/>
	<linearGradient id="SHADOW_6_" gradientUnits="userSpaceOnUse" x1="185.2497" y1="392.5427" x2="185.2497" y2="473.5074">
		<stop  offset="0" style="stop-color:#A7B4C1"/>
		<stop  offset="0.7677" style="stop-color:#A7B4C1;stop-opacity:0"/>
	</linearGradient>
	<rect id="SHADOW_2_" x="99.2" y="392.5" class="st2" width="172.1" height="81"/>
	<linearGradient id="SHADOW_7_" gradientUnits="userSpaceOnUse" x1="346.5815" y1="444.9257" x2="346.5815" y2="473.0094">
		<stop  offset="0" style="stop-color:#A7B4C1"/>
		<stop  offset="0.7677" style="stop-color:#A7B4C1;stop-opacity:0"/>
	</linearGradient>
	<rect id="SHADOW_1_" x="297" y="444.9" class="st3" width="99.2" height="28.1"/>
	<linearGradient id="SHADOW_8_" gradientUnits="userSpaceOnUse" x1="415.8944" y1="427" x2="415.8944" y2="473.0094">
		<stop  offset="0" style="stop-color:#A7B4C1"/>
		<stop  offset="0.7677" style="stop-color:#A7B4C1;stop-opacity:0"/>
	</linearGradient>
	<rect id="SHADOW" x="391.1" y="427" class="st4" width="49.6" height="46"/>
</g>
<g id="ARROW">
	<path class="st5" d="M77.3,221.6c0,0,30.4-26.2,56.2-45.8c16.8-12.8,28.5-20.9,36.9-18.5c16.7,4.8,21.3,29.7,43.6,22.1
		c22.3-7.6,74.7-65.7,93.5-74.2c16.4-7.5,23.9,3.8,29.6,11.4c6.9,9.1,16.3,10.3,40.8-5.8C400.5,95.7,447.3,55,447.3,55"/>
	<path class="st6" d="M77.3,214.4c0,0,30.4-26.2,56.2-45.8c16.8-12.8,28.5-20.9,36.9-18.5c16.7,4.8,21.3,29.7,43.6,22.1
		c22.3-7.6,74.7-65.7,93.5-74.2c16.4-7.5,23.9,3.8,29.6,11.4c6.9,9.1,16.3,10.3,40.8-5.8c22.7-14.9,69.5-55.6,69.5-55.6"/>
	<polygon class="st7" points="427.8,41.1 448.4,69.2 463.2,36.7 	"/>
</g>
<g id="CALCULATOR">
	<path class="st8" d="M459,393.8H298.7c-6.8,0-12.2-5.5-12.2-12.2V161c0-6.8,5.5-12.2,12.2-12.2H459c6.8,0,12.2,5.5,12.2,12.2v220.6
		C471.3,388.4,465.8,393.8,459,393.8z"/>
	<path class="st9" d="M453.2,393.6H294.7c-6.7,0-12.1-5.4-12.1-12.1v-218c0-6.7,5.4-12.1,12.1-12.1h158.5c6.7,0,12.1,5.4,12.1,12.1
		v218C465.3,388.2,459.9,393.6,453.2,393.6z"/>
	<rect x="296.4" y="168.2" class="st10" width="156.9" height="33.5"/>
	<line class="st11" x1="294.8" y1="211.4" x2="454.9" y2="211.4"/>
	<g>
		<path class="st8" d="M325.5,269.3h-23.2c-2.7,0-4.8-2.2-4.8-4.8v-23.2c0-2.7,2.2-4.8,4.8-4.8h23.2c2.7,0,4.8,2.2,4.8,4.8v23.2
			C330.3,267.1,328.2,269.3,325.5,269.3z"/>
		<path class="st8" d="M368.3,269.3h-23.2c-2.7,0-4.8-2.2-4.8-4.8v-23.2c0-2.7,2.2-4.8,4.8-4.8h23.2c2.7,0,4.8,2.2,4.8,4.8v23.2
			C373.2,267.1,371,269.3,368.3,269.3z"/>
		<path class="st8" d="M408.9,269.3h-23.2c-2.7,0-4.8-2.2-4.8-4.8v-23.2c0-2.7,2.2-4.8,4.8-4.8h23.2c2.7,0,4.8,2.2,4.8,4.8v23.2
			C413.7,267.1,411.5,269.3,408.9,269.3z"/>
		<path class="st8" d="M450.4,269.3h-23.2c-2.7,0-4.8-2.2-4.8-4.8v-23.2c0-2.7,2.2-4.8,4.8-4.8h23.2c2.7,0,4.8,2.2,4.8,4.8v23.2
			C455.2,267.1,453.1,269.3,450.4,269.3z"/>
		<path class="st12" d="M323.5,269.3h-23.2c-2.7,0-4.8-2.2-4.8-4.8v-23.2c0-2.7,2.2-4.8,4.8-4.8h23.2c2.7,0,4.8,2.2,4.8,4.8v23.2
			C328.4,267.1,326.2,269.3,323.5,269.3z"/>
		<path class="st12" d="M366.3,269.3h-23.2c-2.7,0-4.8-2.2-4.8-4.8v-23.2c0-2.7,2.2-4.8,4.8-4.8h23.2c2.7,0,4.8,2.2,4.8,4.8v23.2
			C371.2,267.1,369,269.3,366.3,269.3z"/>
		<path class="st12" d="M406.9,269.3h-23.2c-2.7,0-4.8-2.2-4.8-4.8v-23.2c0-2.7,2.2-4.8,4.8-4.8h23.2c2.7,0,4.8,2.2,4.8,4.8v23.2
			C411.7,267.1,409.5,269.3,406.9,269.3z"/>
		<path class="st12" d="M448.4,269.3h-23.2c-2.7,0-4.8-2.2-4.8-4.8v-23.2c0-2.7,2.2-4.8,4.8-4.8h23.2c2.7,0,4.8,2.2,4.8,4.8v23.2
			C453.2,267.1,451.1,269.3,448.4,269.3z"/>
	</g>
	<g>
		<path class="st8" d="M325.5,314.9h-23.2c-2.7,0-4.8-2.2-4.8-4.8v-23.2c0-2.7,2.2-4.8,4.8-4.8h23.2c2.7,0,4.8,2.2,4.8,4.8V310
			C330.3,312.7,328.2,314.9,325.5,314.9z"/>
		<path class="st8" d="M368.3,314.9h-23.2c-2.7,0-4.8-2.2-4.8-4.8v-23.2c0-2.7,2.2-4.8,4.8-4.8h23.2c2.7,0,4.8,2.2,4.8,4.8V310
			C373.2,312.7,371,314.9,368.3,314.9z"/>
		<path class="st8" d="M408.9,314.9h-23.2c-2.7,0-4.8-2.2-4.8-4.8v-23.2c0-2.7,2.2-4.8,4.8-4.8h23.2c2.7,0,4.8,2.2,4.8,4.8V310
			C413.7,312.7,411.5,314.9,408.9,314.9z"/>
		<path class="st8" d="M450.4,314.9h-23.2c-2.7,0-4.8-2.2-4.8-4.8v-23.2c0-2.7,2.2-4.8,4.8-4.8h23.2c2.7,0,4.8,2.2,4.8,4.8V310
			C455.2,312.7,453.1,314.9,450.4,314.9z"/>
		<path class="st12" d="M323.5,314.9h-23.2c-2.7,0-4.8-2.2-4.8-4.8v-23.2c0-2.7,2.2-4.8,4.8-4.8h23.2c2.7,0,4.8,2.2,4.8,4.8V310
			C328.4,312.7,326.2,314.9,323.5,314.9z"/>
		<path class="st12" d="M366.3,314.9h-23.2c-2.7,0-4.8-2.2-4.8-4.8v-23.2c0-2.7,2.2-4.8,4.8-4.8h23.2c2.7,0,4.8,2.2,4.8,4.8V310
			C371.2,312.7,369,314.9,366.3,314.9z"/>
		<path class="st12" d="M406.9,314.9h-23.2c-2.7,0-4.8-2.2-4.8-4.8v-23.2c0-2.7,2.2-4.8,4.8-4.8h23.2c2.7,0,4.8,2.2,4.8,4.8V310
			C411.7,312.7,409.5,314.9,406.9,314.9z"/>
		<path class="st12" d="M448.4,314.9h-23.2c-2.7,0-4.8-2.2-4.8-4.8v-23.2c0-2.7,2.2-4.8,4.8-4.8h23.2c2.7,0,4.8,2.2,4.8,4.8V310
			C453.2,312.7,451.1,314.9,448.4,314.9z"/>
	</g>
	<g>
		<path class="st8" d="M325.5,360.5h-23.2c-2.7,0-4.8-2.2-4.8-4.8v-23.2c0-2.7,2.2-4.8,4.8-4.8h23.2c2.7,0,4.8,2.2,4.8,4.8v23.2
			C330.3,358.3,328.2,360.5,325.5,360.5z"/>
		<path class="st8" d="M368.3,360.5h-23.2c-2.7,0-4.8-2.2-4.8-4.8v-23.2c0-2.7,2.2-4.8,4.8-4.8h23.2c2.7,0,4.8,2.2,4.8,4.8v23.2
			C373.2,358.3,371,360.5,368.3,360.5z"/>
		<path class="st8" d="M408.9,360.5h-23.2c-2.7,0-4.8-2.2-4.8-4.8v-23.2c0-2.7,2.2-4.8,4.8-4.8h23.2c2.7,0,4.8,2.2,4.8,4.8v23.2
			C413.7,358.3,411.5,360.5,408.9,360.5z"/>
		<path class="st8" d="M450.4,360.5h-23.2c-2.7,0-4.8-2.2-4.8-4.8v-23.2c0-2.7,2.2-4.8,4.8-4.8h23.2c2.7,0,4.8,2.2,4.8,4.8v23.2
			C455.2,358.3,453.1,360.5,450.4,360.5z"/>
		<path class="st12" d="M323.5,360.5h-23.2c-2.7,0-4.8-2.2-4.8-4.8v-23.2c0-2.7,2.2-4.8,4.8-4.8h23.2c2.7,0,4.8,2.2,4.8,4.8v23.2
			C328.4,358.3,326.2,360.5,323.5,360.5z"/>
		<path class="st12" d="M366.3,360.5h-23.2c-2.7,0-4.8-2.2-4.8-4.8v-23.2c0-2.7,2.2-4.8,4.8-4.8h23.2c2.7,0,4.8,2.2,4.8,4.8v23.2
			C371.2,358.3,369,360.5,366.3,360.5z"/>
		<path class="st12" d="M406.9,360.5h-23.2c-2.7,0-4.8-2.2-4.8-4.8v-23.2c0-2.7,2.2-4.8,4.8-4.8h23.2c2.7,0,4.8,2.2,4.8,4.8v23.2
			C411.7,358.3,409.5,360.5,406.9,360.5z"/>
		<path class="st12" d="M448.4,360.5h-23.2c-2.7,0-4.8-2.2-4.8-4.8v-23.2c0-2.7,2.2-4.8,4.8-4.8h23.2c2.7,0,4.8,2.2,4.8,4.8v23.2
			C453.2,358.3,451.1,360.5,448.4,360.5z"/>
	</g>
	<g>
		<circle class="st13" cx="438.3" cy="216.5" r="1.8"/>
		<circle class="st14" cx="444.5" cy="216.5" r="1.8"/>
		<circle class="st15" cx="450.7" cy="216.5" r="1.8"/>
	</g>
	<linearGradient id="SVGID_1_" gradientUnits="userSpaceOnUse" x1="334.8666" y1="168.172" x2="334.8666" y2="201.6333">
		<stop  offset="0" style="stop-color:#FFFFFF"/>
		<stop  offset="0.3361" style="stop-color:#F6FDFF"/>
		<stop  offset="0.7677" style="stop-color:#E3FAFF"/>
	</linearGradient>
	<polygon class="st16" points="304.1,201.6 329.8,201.6 365.7,168.2 340,168.2 	"/>
	<linearGradient id="SVGID_2_" gradientUnits="userSpaceOnUse" x1="371.8042" y1="168.172" x2="371.8042" y2="201.6333">
		<stop  offset="0" style="stop-color:#FFFFFF"/>
		<stop  offset="0.3361" style="stop-color:#F6FDFF"/>
		<stop  offset="0.7677" style="stop-color:#E3FAFF"/>
	</linearGradient>
	<polygon class="st17" points="361.3,201.6 397.2,168.2 382.3,168.2 346.4,201.6 	"/>
</g>
<g id="COINS">
	<g id="COIN-4">
		<path class="st18" d="M396.7,446.1v-7.6h-29.4c-6.2-0.5-13.1-0.7-20.3-0.7s-14.1,0.3-20.3,0.7h-29.4v7.6h0c0,0.1,0,0.2,0,0.2
			c0,4.7,22.3,8.6,49.8,8.6c27.5,0,49.8-3.8,49.8-8.6C396.8,446.2,396.8,446.2,396.7,446.1z"/>
		<path class="st14" d="M300.7,449.5V440h-1.1v8.9C299.9,449.1,300.3,449.3,300.7,449.5z"/>
		<path class="st14" d="M310.1,452.1v-9.2H309v9C309.4,451.9,309.8,452,310.1,452.1z"/>
		<path class="st14" d="M322.7,453.8v-9h-1.1v8.9C321.9,453.7,322.3,453.8,322.7,453.8z"/>
		<path class="st14" d="M335.3,454.6c0.4,0,0.7,0,1.1,0v-8.9h-1.1V454.6z"/>
		<path class="st14" d="M353,454.8v-8.9h-1.1v8.9C352.2,454.8,352.6,454.8,353,454.8z"/>
		<path class="st14" d="M368.3,454.1c0.4,0,0.7-0.1,1.1-0.1v-9.2h-1.1V454.1z"/>
		<path class="st14" d="M381.4,452.5c0.4-0.1,0.7-0.1,1.1-0.2v-9.5h-1.1V452.5z"/>
		<path class="st14" d="M392.9,449.6c0.4-0.2,0.8-0.3,1.1-0.5v-9.8h-1.1V449.6z"/>
		<ellipse class="st14" cx="347" cy="438.9" rx="49.8" ry="8.6"/>
		<ellipse class="st18" cx="347.4" cy="438.6" rx="40.4" ry="5.4"/>
		<linearGradient id="SVGID_3_" gradientUnits="userSpaceOnUse" x1="332.9863" y1="434.9172" x2="332.9863" y2="445.4433">
			<stop  offset="0" style="stop-color:#FDC64D;stop-opacity:0.8"/>
			<stop  offset="0.7677" style="stop-color:#FDC64D;stop-opacity:0"/>
		</linearGradient>
		<path class="st19" d="M358.8,435.1c-3.6-0.1-7.4-0.2-11.3-0.2c-22.3,0-40.4,2.4-40.4,5.4c0,2.5,12.7,4.6,30,5.2
			C343.9,442.2,351.6,438.6,358.8,435.1z"/>
		<ellipse class="st20" cx="346.7" cy="438.8" rx="44.5" ry="7.1"/>
	</g>
	<g id="COIN-3">
		<path class="st18" d="M471.1,425.6v-6.1h-23.9c-5-0.4-10.6-0.6-16.5-0.6c-5.9,0-11.5,0.2-16.5,0.6h-23.9v6.1h0c0,0.1,0,0.1,0,0.2
			c0,3.8,18.1,6.9,40.4,6.9c22.3,0,40.4-3.1,40.4-6.9C471.2,425.8,471.1,425.7,471.1,425.6z"/>
		<path class="st14" d="M393.2,428.4v-7.6h-0.9v7.2C392.6,428.1,392.9,428.2,393.2,428.4z"/>
		<path class="st14" d="M400.9,430.5V423H400v7.3C400.3,430.4,400.6,430.4,400.9,430.5z"/>
		<path class="st14" d="M411.1,431.9v-7.3h-0.9v7.2C410.5,431.8,410.8,431.9,411.1,431.9z"/>
		<path class="st14" d="M421.3,432.6c0.3,0,0.6,0,0.9,0v-7.2h-0.9V432.6z"/>
		<path class="st14" d="M435.6,432.7v-7.2h-0.9v7.2C435,432.7,435.3,432.7,435.6,432.7z"/>
		<path class="st14" d="M448.1,432.1c0.3,0,0.6-0.1,0.9-0.1v-7.5h-0.9V432.1z"/>
		<path class="st14" d="M458.7,430.8c0.3,0,0.6-0.1,0.9-0.2V423h-0.9V430.8z"/>
		<path class="st14" d="M468,428.5c0.3-0.1,0.6-0.3,0.9-0.4v-7.9H468V428.5z"/>
		<ellipse class="st14" cx="430.8" cy="419.8" rx="40.4" ry="6.9"/>
		<ellipse class="st18" cx="431.1" cy="419.6" rx="32.8" ry="4.3"/>
		<linearGradient id="SVGID_4_" gradientUnits="userSpaceOnUse" x1="419.434" y1="416.5826" x2="419.434" y2="425.1193">
			<stop  offset="0" style="stop-color:#FDC64D;stop-opacity:0.8"/>
			<stop  offset="0.7677" style="stop-color:#FDC64D;stop-opacity:0"/>
		</linearGradient>
		<path class="st21" d="M440.4,416.8c-2.9-0.1-6-0.2-9.1-0.2c-18.1,0-32.8,1.9-32.8,4.3c0,2,10.3,3.7,24.3,4.2
			C428.3,422.5,434.5,419.5,440.4,416.8z"/>
		<ellipse class="st22" cx="431.2" cy="419.6" rx="36.3" ry="5.8"/>
	</g>
	<g id="COIN-2">
		<path class="st18" d="M456.2,414.9v-6.1h-23.9c-5-0.4-10.6-0.6-16.5-0.6c-5.9,0-11.5,0.2-16.5,0.6h-23.9v6.1h0c0,0.1,0,0.1,0,0.2
			c0,3.8,18.1,6.9,40.4,6.9c22.3,0,40.4-3.1,40.4-6.9C456.2,415,456.2,414.9,456.2,414.9z"/>
		<path class="st14" d="M378.3,417.6V410h-0.9v7.2C377.7,417.3,378,417.5,378.3,417.6z"/>
		<path class="st14" d="M386,419.7v-7.5h-0.9v7.3C385.4,419.6,385.7,419.7,386,419.7z"/>
		<path class="st14" d="M396.1,421.1v-7.3h-0.9v7.2C395.5,421.1,395.8,421.1,396.1,421.1z"/>
		<path class="st14" d="M406.4,421.8c0.3,0,0.6,0,0.9,0v-7.2h-0.9V421.8z"/>
		<path class="st14" d="M420.7,422v-7.2h-0.9v7.2C420.1,422,420.4,422,420.7,422z"/>
		<path class="st14" d="M433.1,421.4c0.3,0,0.6-0.1,0.9-0.1v-7.5h-0.9V421.4z"/>
		<path class="st14" d="M443.8,420.1c0.3,0,0.6-0.1,0.9-0.2v-7.7h-0.9V420.1z"/>
		<path class="st14" d="M453.1,417.8c0.3-0.1,0.6-0.3,0.9-0.4v-7.9h-0.9V417.8z"/>
		<ellipse class="st14" cx="415.8" cy="409" rx="40.4" ry="6.9"/>
		<ellipse class="st18" cx="416.2" cy="408.8" rx="32.8" ry="4.3"/>
		<linearGradient id="SVGID_5_" gradientUnits="userSpaceOnUse" x1="404.4958" y1="405.8271" x2="404.4958" y2="414.3638">
			<stop  offset="0" style="stop-color:#FDC64D;stop-opacity:0.8"/>
			<stop  offset="0.7677" style="stop-color:#FDC64D;stop-opacity:0"/>
		</linearGradient>
		<path class="st23" d="M425.5,406c-2.9-0.1-6-0.2-9.1-0.2c-18.1,0-32.8,1.9-32.8,4.3c0,2,10.3,3.7,24.3,4.2
			C413.4,411.8,419.6,408.8,425.5,406z"/>
		<ellipse class="st22" cx="415.9" cy="408.8" rx="36.3" ry="5.8"/>
	</g>
	<g id="COIN-1">
		<path class="st18" d="M502,468v-7.9h-30.9c-6.5-0.5-13.7-0.8-21.3-0.8s-14.8,0.3-21.3,0.8h-30.9v7.9h0c0,0.1,0,0.2,0,0.2
			c0,5,23.4,9,52.2,9c28.8,0,52.2-4,52.2-9C502,468.2,502,468.1,502,468z"/>
		<path class="st14" d="M401.2,471.6v-9.9h-1.1v9.3C400.4,471.2,400.8,471.4,401.2,471.6z"/>
		<path class="st14" d="M411.1,474.4v-9.7H410v9.5C410.4,474.2,410.8,474.3,411.1,474.4z"/>
		<path class="st14" d="M424.3,476.1v-9.4h-1.1v9.3C423.5,476.1,423.9,476.1,424.3,476.1z"/>
		<path class="st14" d="M437.6,477c0.4,0,0.8,0,1.1,0v-9.3h-1.1V477z"/>
		<path class="st14" d="M456,477.2v-9.3h-1.1v9.4C455.3,477.2,455.7,477.2,456,477.2z"/>
		<path class="st14" d="M472.1,476.4c0.4,0,0.8-0.1,1.1-0.1v-9.7h-1.1V476.4z"/>
		<path class="st14" d="M485.9,474.8c0.4-0.1,0.8-0.1,1.1-0.2v-9.9h-1.1V474.8z"/>
		<path class="st14" d="M497.9,471.8c0.4-0.2,0.8-0.3,1.1-0.5V461h-1.1V471.8z"/>
		<ellipse class="st14" cx="449.8" cy="460.5" rx="52.2" ry="9"/>
		<ellipse class="st18" cx="450.2" cy="460.2" rx="42.4" ry="5.6"/>
		<linearGradient id="SVGID_6_" gradientUnits="userSpaceOnUse" x1="435.1098" y1="456.3543" x2="435.1098" y2="467.3918">
			<stop  offset="0" style="stop-color:#FDC64D;stop-opacity:0.8"/>
			<stop  offset="0.7677" style="stop-color:#FDC64D;stop-opacity:0"/>
		</linearGradient>
		<path class="st24" d="M462.2,456.6c-3.8-0.1-7.7-0.2-11.8-0.2c-23.4,0-42.4,2.5-42.4,5.6c0,2.6,13.4,4.8,31.5,5.4
			C446.6,464,454.6,460.2,462.2,456.6z"/>
		<ellipse class="st25" cx="449.8" cy="460.1" rx="46.2" ry="7.3"/>
	</g>
</g>
<g id="BANKNOTES">
	<g id="BANKNOTE_2_">
		<g>
			<path class="st26" d="M384.9,420.6l6.3-81.1c0,0-29.7-12.4-78.8-11.4c-59.8,1.2-84.7,8.3-84.7,8.3l-3,79
				C224.7,415.5,314.3,403.8,384.9,420.6z"/>
			<path class="st27" d="M386.3,343c0,0-33.1-9.9-69.2-10c-33.5-0.1-82.5,7.5-82.5,7.5l-4.9,69c0,0,36.2-6.2,86.1-4.2
				c48.2,2,63.5,8.7,63.5,8.7L386.3,343z"/>
			<circle class="st26" cx="303.9" cy="369.3" r="27.2"/>
			<path class="st27" d="M370.2,341c-0.1,9.4,7.4,17.1,16.8,17.2c0.9,0,1.8-0.1,2.7-0.2l1.5-18.5c0,0-6.8-2.8-19.4-5.7
				C370.9,336,370.3,338.4,370.2,341z"/>
			<path class="st26" d="M384.3,419.4l1.9-18.1c-2.2-1-4.6-1.6-7.1-1.6c-9.3-0.1-17,7.3-17.2,16.6
				C369.6,417.8,376.9,417.2,384.3,419.4z"/>
			<path class="st27" d="M228.1,392.7c-0.8,0-1.7,0.1-2.5,0.2l-0.9,22.6c0,0,7.5-1.3,19.9-2.6c0.2-1,0.3-1.9,0.3-3
				C245,400.5,237.5,392.8,228.1,392.7z"/>
			<path class="st27" d="M227.1,353.7c0.6,0.1,1.3,0.1,2,0.1c9.4,0.1,17.1-7.4,17.2-16.8c0-1.4-0.2-2.7-0.5-4
				c-12.4,1.8-18.1,3.4-18.1,3.4L227.1,353.7z"/>
		</g>
		<line class="st28" x1="384.9" y1="420.6" x2="387.8" y2="370.5"/>
	</g>
	<g id="BANKNOTE_1_">
		<g>
			<path class="st26" d="M388.7,401.3l5.5-81.2c0,0-29.9-12.1-78.9-10.6c-59.8,1.8-84.6,9.2-84.6,9.2l-2.2,79.1
				C228.5,397.8,317.9,385.2,388.7,401.3z"/>
			<path class="st27" d="M389.3,323.6c0,0-33.2-9.6-69.3-9.3c-33.5,0.3-82.5,8.4-82.5,8.4l-4.2,69c0,0,36.2-6.6,86-5.1
				c48.2,1.4,63.6,8.1,63.6,8.1L389.3,323.6z"/>
			<circle class="st27" cx="307.1" cy="350.8" r="27.2"/>
			<path class="st27" d="M373.2,321.8c0,9.4,7.6,17,17,17c0.9,0,1.8-0.1,2.7-0.2l1.3-18.5c0,0-6.9-2.8-19.4-5.5
				C373.8,316.8,373.2,319.3,373.2,321.8z"/>
			<path class="st26" d="M388.1,400.1l1.7-18.1c-2.2-1-4.6-1.6-7.1-1.6c-9.3,0-16.9,7.5-17,16.8C373.4,398.6,380.7,398,388.1,400.1z
				"/>
			<path class="st27" d="M231.6,375c-0.8,0-1.7,0.1-2.5,0.2l-0.6,22.6c0,0,7.5-1.4,19.8-2.8c0.2-1,0.3-1.9,0.3-3
				C248.6,382.6,241,375,231.6,375z"/>
			<path class="st27" d="M230.2,336.1c0.6,0.1,1.3,0.1,2,0.1c9.4,0,17-7.6,17-17c0-1.4-0.2-2.7-0.5-4c-12.4,1.9-18,3.6-18,3.6
				L230.2,336.1z"/>
		</g>
		<line class="st28" x1="388.7" y1="401.3" x2="393.2" y2="339.8"/>
	</g>
	<g id="BANKNOTE">
		<g>
			<path class="st13" d="M394.7,386.4l5.5-81.2c0,0-29.9-11-78.9-10.6c-64.6,0.6-84.6,9.2-84.6,9.2l-2.2,79.1
				C234.4,382.9,323.9,370.2,394.7,386.4z"/>
			<path class="st27" d="M395.3,308.7c0,0-33.2-9.6-69.3-9.3c-33.5,0.3-82.5,8.4-82.5,8.4l-4.2,69c0,0,36.2-6.6,86-5.1
				c48.2,1.4,63.6,8.1,63.6,8.1L395.3,308.7z"/>
			<g>
				<circle class="st26" cx="313.1" cy="335.9" r="27.2"/>
			</g>
			<path class="st13" d="M379.1,306.9c0,9.4,7.6,17,17,17c0.9,0,1.8-0.1,2.7-0.2l1.3-18.5c0,0-6.9-2.8-19.4-5.5
				C379.7,301.9,379.1,304.3,379.1,306.9z"/>
			<path class="st13" d="M394.1,385.2l1.7-18.1c-2.2-1-4.6-1.6-7.1-1.6c-9.3,0-16.9,7.5-17,16.8C379.3,383.6,386.7,383,394.1,385.2z
				"/>
			<path class="st27" d="M237.5,360.1c-0.8,0-1.7,0.1-2.5,0.2l-0.6,22.6c0,0,7.5-1.4,19.8-2.8c0.2-1,0.3-1.9,0.3-3
				C254.6,367.7,246.9,360.1,237.5,360.1z"/>
			<path class="st27" d="M236.2,321.1c0.6,0.1,1.3,0.1,2,0.1c9.4,0,17-7.6,17-17c0-1.4-0.2-2.7-0.5-4c-12.4,1.9-18,3.6-18,3.6
				L236.2,321.1z"/>
			<g>
				<g>
					<path class="st29" d="M313.1,315.1c11.5,0,20.8,9.3,20.8,20.8s-9.3,20.8-20.8,20.8s-20.8-9.3-20.8-20.8
						S301.6,315.1,313.1,315.1 M313.1,314.1c-12,0-21.8,9.8-21.8,21.8c0,12,9.8,21.8,21.8,21.8c12,0,21.8-9.8,21.8-21.8
						C334.9,323.8,325.2,314.1,313.1,314.1L313.1,314.1z"/>
				</g>
			</g>
		</g>
		<path class="st28" d="M394.7,386.4l5.5-81.2c0,0-75.4-23-163.5-1.4"/>
	</g>
	<linearGradient id="SHADOW_9_" gradientUnits="userSpaceOnUse" x1="209.3499" y1="356.7213" x2="336.1248" y2="356.7213">
		<stop  offset="0" style="stop-color:#2793FB"/>
		<stop  offset="1" style="stop-color:#2793FB;stop-opacity:0"/>
	</linearGradient>
	<path id="SHADOW_4_" class="st30" d="M336.1,294.9l-33.5,116.2c0,0-40.9,0-59.5,2.4c-14.2,1.8-33.9,5.2-33.9,5.2l18.1-113.5
		C227.5,305.2,284.4,292.9,336.1,294.9z"/>
</g>
<g id="WALLET">
	<g>
		<path class="st9" d="M285.3,283c3.3,0.4,13-1,14,7.3c1,8.4-20.1,94.3-21.3,100.1c-1.2,5.8-7,26.7-13.9,27.9
			c-8.5,1.5-26-3.6-33.9-26.7C222.3,368.4,285.3,283,285.3,283z"/>
		<path class="st12" d="M127.6,289.6c4-8.5,9.5-11.1,26.9-10.3c13.4,0.6,127,3.4,129.7,3.7c2.7,0.3,8.7,4.8,7.5,12
			c-1.2,7.2-19.4,86.6-21.8,97.4c-2.4,10.8-4.9,17.9-17,14.6c-12.2-3.3-127.6-25.7-127.6-25.7l-17.9-46.6
			C107.3,334.7,125,295,127.6,289.6z"/>
		<path class="st31" d="M259.4,370.7l-99.6-6.7c-2.6-0.2-4.6-2.4-4.4-5.1l10-62.1c0.2-2.6,2.4-4.6,5.1-4.4l99.6,6.7
			c2.6,0.2,4.6,2.4,4.4,5.1l-10,62.1C264.3,368.9,262,370.9,259.4,370.7z"/>
		<path class="st29" d="M256.8,370.2l-99.6-6.7c-2.6-0.2-4.6-2.4-4.4-5.1l10-62.1c0.2-2.6,2.4-4.6,5.1-4.4l99.6,6.7
			c2.6,0.2,4.6,2.4,4.4,5.1l-10,62.1C261.7,368.4,259.5,370.4,256.8,370.2z"/>
		<path class="st31" d="M237.2,368.5l-99.6-6.7c-2.6-0.2-4.6-2.4-4.4-5.1l10-62.1c0.2-2.6,2.4-4.6,5.1-4.4l99.6,6.7
			c2.6,0.2,4.6,2.4,4.4,5.1l-10,62.1C242.1,366.7,239.8,368.7,237.2,368.5z"/>
		<path class="st29" d="M234.7,368.2l-99.6-6.7c-2.6-0.2-4.6-2.4-4.4-5.1l10-62.1c0.2-2.6,2.4-4.6,5.1-4.4l99.6,6.7
			c2.6,0.2,4.6,2.4,4.4,5.1l-10,62.1C239.5,366.4,237.3,368.4,234.7,368.2z"/>
		<path class="st15" d="M223.3,362.3c0,0,6.2-33.7,7.3-41.7c2.2-15.5,3.9-29.4,3.9-29.4s-29.1-1.3-46.7-1.9
			c-9.6-0.3-44-1.6-47.4-1.2c-3.4,0.4-6,5.6-7.8,10.9c-2.2,6.7-19.3,53.9-21.1,60.5C109.8,366.1,223.3,362.3,223.3,362.3z"/>
		<path class="st9" d="M200,308.2c7-0.2,12.3,4.2,14.3,8.8c2,4.6,30.7,71.5,34.9,78.7c4.2,7.2,9.6,12,14.1,10.8
			c4.6-1.2,7.4,9.4,1,11c-6.4,1.6-13.9,1.6-22.9-6.4C232.5,403,200,308.2,200,308.2z"/>
		<path class="st14" d="M264.1,418.3c0,0-9.8,0.4-19.7-18.3s-30.3-78.5-32.1-82.5s-6.2-9.8-16.5-9.2c-10.4,0.6-115.1,0.8-120.5,0.8
			c-5.4,0-21.5-0.8-24.3,3.8c-2.8,4.6-1.8,9.2-0.2,13.3c1.6,4.2,23.5,60.4,27.9,69.3c4.4,9,10.6,23.3,22.5,29.1
			c12,5.8,35.1,5,67.1,5S243.8,429.3,264.1,418.3z"/>
		<path class="st9" d="M241.6,252.5c0,0-1-10.5-2.8-13.7c-1.8-3.3-5.7-5.1-14.2-5.1c-8.5,0-21.2,1-24.6,2.1c-3.4,1-7.3,5.8-5.4,10.6
			S241.6,252.5,241.6,252.5z"/>
		<g>
			<g>
				<path class="st32" d="M251,422.9c0,0-0.9-0.5-2.4-1.9"/>
				<path class="st33" d="M245.9,418.2c-3.7-4.2-8.8-11.8-13.6-24.6c-8.8-23.5-24.1-63.3-27.5-68.1c-3.4-4.8-5.6-9.4-21.9-7.4
					c-16.3,2-62.5,2.4-76.3,2c-13.7-0.4-34.3-3.6-39.2-2.4c-5,1.2-9.6,4.2-5.4,16.3c4.2,12.1,25.7,62.5,27.7,67.9
					c1.6,4.2,5.4,11.9,8.9,17.6"/>
				<path class="st32" d="M99.7,421.3c0.6,0.9,1.2,1.7,1.7,2.4"/>
			</g>
		</g>
		<path class="st15" d="M222.7,341.5c0,0,19.7,55,31.7,64.9c12,10,16.3-1.6,19.1-9.8c2.8-8.2,18.7-81.5,19.9-86.8
			c1.2-5.4,3.2-16.1,2.6-19.5s-3.6-4.8-3.6-4.8s5,1.8,5.4,5.8s-9.8,51.2-11.8,59.6c-2,8.4-9,42.4-12.9,51.2
			c-4,8.8-8.8,15.9-16.3,9.8c-7.6-6.2-15.7-21.7-18.1-27.9C236.2,377.7,222.7,341.5,222.7,341.5z"/>
		<path class="st12" d="M194.6,288.3c0,0,4-16.7,4.4-23.3c0.4-6.6-3.4-13.3-4-16.7c-0.6-3.4-3-7.2,4.7-9.5
			c7.8-2.2,30.7-1.6,33.2-0.6c3.6,1.5,6.6,4.4,8.1,11.5c1.2,6,1.5,18.2,0.4,26.7c-0.9,7.1-2.8,12.4-2.8,12.4L194.6,288.3z"/>
		<g>
			<path class="st15" d="M217.5,248.2c2.9,0,5.2,2,5.2,4.4s-2.3,4.4-5.2,4.4s-5.2-2-5.2-4.4S214.7,248.2,217.5,248.2 M217.5,246.2
				c-4,0-7.2,2.9-7.2,6.4c0,3.5,3.2,6.4,7.2,6.4s7.2-2.9,7.2-6.4C224.7,249.1,221.5,246.2,217.5,246.2L217.5,246.2z"/>
		</g>
	</g>
</g>
</svg>
